HIERARCHY
ROOT Hips
{
	OFFSET 0.000000 83.214638 0.000000
	CHANNELS 6 Xposition Yposition Zposition Xrotation Yrotation Zrotation
	JOINT Pelvis
	{
		OFFSET 0.000000 0.000000 0.000000
		CHANNELS 3 Xrotation Yrotation Zrotation
		JOINT LeftUpLeg
		{
			OFFSET 8.479700 -4.795502 -0.379100
			CHANNELS 3 Xrotation Yrotation Zrotation
			JOINT LeftLeg
			{
				OFFSET 0.024144 -32.555107 0.112900
				CHANNELS 3 Xrotation Yrotation Zrotation
				JOINT LeftFoot
				{
					OFFSET -0.024144 -32.638630 -3.012600
					CHANNELS 3 Xrotation Yrotation Zrotation
					JOINT LeftToeBase
					{
						OFFSET 0.970200 -13.225400 11.864200
						CHANNELS 3 Xrotation Yrotation Zrotation
						End Site
						{
							OFFSET 0.000000 12.319262 0.000000
						}
					}
					JOINT LFootTongue
					{
						OFFSET 1.142400 -1.059800 6.665200
						CHANNELS 3 Xrotation Yrotation Zrotation
						End Site
						{
							OFFSET 0.000000 12.319262 0.000000
						}
					}
				}
				JOINT LeftPantLeg
				{
					OFFSET 0.918482 -16.533964 -2.284700
					CHANNELS 3 Xrotation Yrotation Zrotation
					End Site
					{
						OFFSET 0.350399 24.744368 0.000000
					}
				}
			}
		}
		JOINT RightUpLeg
		{
			OFFSET -8.479700 -4.795502 -0.379100
			CHANNELS 3 Xrotation Yrotation Zrotation
			JOINT RightLeg
			{
				OFFSET -0.023144 -32.555092 0.112900
				CHANNELS 3 Xrotation Yrotation Zrotation
				JOINT RightFoot
				{
					OFFSET 0.023144 -32.638641 -3.012700
					CHANNELS 3 Xrotation Yrotation Zrotation
					JOINT RightToeBase
					{
						OFFSET -0.970200 -13.225400 11.864200
						CHANNELS 3 Xrotation Yrotation Zrotation
						End Site
						{
							OFFSET 0.000000 12.319244 0.000000
						}
					}
					JOINT RFootTongue
					{
						OFFSET -1.142200 -1.059800 6.665200
						CHANNELS 3 Xrotation Yrotation Zrotation
						End Site
						{
							OFFSET 0.000000 12.319243 0.000000
						}
					}
				}
				JOINT RightPantLeg
				{
					OFFSET -0.919482 -16.533978 -2.284800
					CHANNELS 3 Xrotation Yrotation Zrotation
					End Site
					{
						OFFSET -0.350400 24.744419 0.000000
					}
				}
			}
		}
	}
	JOINT Spine
	{
		OFFSET 0.000000 7.722000 1.166200
		CHANNELS 3 Xrotation Yrotation Zrotation
		JOINT Spine1
		{
			OFFSET 0.000000 12.024101 0.248800
			CHANNELS 3 Xrotation Yrotation Zrotation
			JOINT Spine2
			{
				OFFSET 0.000000 11.502998 -0.491200
				CHANNELS 3 Xrotation Yrotation Zrotation
				JOINT Neck
				{
					OFFSET 0.000000 18.430702 -3.123100
					CHANNELS 3 Xrotation Yrotation Zrotation
					JOINT Head
					{
						OFFSET 0.000000 9.051102 1.034000
						CHANNELS 3 Xrotation Yrotation Zrotation
						JOINT HairB
						{
							OFFSET 0.208400 24.786102 24.822300
							CHANNELS 3 Xrotation Yrotation Zrotation
							End Site
							{
								OFFSET 0.000000 32.263779 0.000000
							}
						}
						JOINT HairA
						{
							OFFSET -7.081100 24.428299 23.196600
							CHANNELS 3 Xrotation Yrotation Zrotation
							End Site
							{
								OFFSET 0.000000 32.263779 0.000000
							}
						}
						JOINT Hat
						{
							OFFSET 16.728800 15.048294 -15.439601
							CHANNELS 3 Xrotation Yrotation Zrotation
							End Site
							{
								OFFSET 0.000000 32.263779 0.000000
							}
						}
					}
				}
				JOINT LeftShoulder
				{
					OFFSET 6.197800 13.665199 -4.064700
					CHANNELS 3 Xrotation Yrotation Zrotation
					JOINT LeftArm
					{
						OFFSET 7.778100 -0.187103 -1.709300
						CHANNELS 3 Xrotation Yrotation Zrotation
						JOINT LeftForeArm
						{
							OFFSET 22.049376 0.000000 0.000000
							CHANNELS 3 Xrotation Yrotation Zrotation
							JOINT LeftHand
							{
								OFFSET 23.009392 0.000000 0.000000
								CHANNELS 3 Xrotation Yrotation Zrotation
								JOINT LeftHandThumb1
								{
									OFFSET 3.507191 -2.063065 3.133727
									CHANNELS 3 Xrotation Yrotation Zrotation
									JOINT LeftHandThumb2
									{
										OFFSET 3.101337 -1.790558 1.790558
										CHANNELS 3 Xrotation Yrotation Zrotation
										JOINT LeftHandThumb3
										{
											OFFSET 3.058640 -1.765907 1.765906
											CHANNELS 3 Xrotation Yrotation Zrotation
											End Site
											{
												OFFSET -0.415260 3.926476 -0.049563
											}
										}
									}
								}
								JOINT LeftHandIndex1
								{
									OFFSET 11.334419 -0.901459 3.706815
									CHANNELS 3 Xrotation Yrotation Zrotation
									JOINT LeftHandIndex2
									{
										OFFSET 3.283112 0.000000 0.000000
										CHANNELS 3 Xrotation Yrotation Zrotation
										JOINT LeftHandIndex3
										{
											OFFSET 3.323853 0.000000 0.000000
											CHANNELS 3 Xrotation Yrotation Zrotation
											End Site
											{
												OFFSET -1.135597 3.097809 0.402452
											}
										}
									}
								}
								JOINT LeftHandMiddle1
								{
									OFFSET 11.335861 0.000000 0.000000
									CHANNELS 3 Xrotation Yrotation Zrotation
									JOINT LeftHandMiddle2
									{
										OFFSET 3.410492 0.000000 0.000000
										CHANNELS 3 Xrotation Yrotation Zrotation
										JOINT LeftHandMiddle3
										{
											OFFSET 3.312172 0.000000 0.000000
											CHANNELS 3 Xrotation Yrotation Zrotation
											End Site
											{
												OFFSET -1.150200 3.080154 0.400270
											}
										}
									}
								}
								JOINT LeftHandRing1
								{
									OFFSET 11.514786 -0.013176 -3.003090
									CHANNELS 3 Xrotation Yrotation Zrotation
									JOINT LeftHandRing2
									{
										OFFSET 3.053307 0.000000 0.000000
										CHANNELS 3 Xrotation Yrotation Zrotation
										JOINT LeftHandRing3
										{
											OFFSET 3.295807 0.000000 0.000000
											CHANNELS 3 Xrotation Yrotation Zrotation
											End Site
											{
												OFFSET -1.281006 3.013344 0.375733
											}
										}
									}
								}
								JOINT LeftHandPinky1
								{
									OFFSET 10.518692 -0.960396 -5.730441
									CHANNELS 3 Xrotation Yrotation Zrotation
									JOINT LeftHandPinky2
									{
										OFFSET 2.861649 0.000000 0.000000
										CHANNELS 3 Xrotation Yrotation Zrotation
										JOINT LeftHandPinky3
										{
											OFFSET 2.863380 0.000000 0.000000
											CHANNELS 3 Xrotation Yrotation Zrotation
											End Site
											{
												OFFSET -0.843597 2.711159 0.369971
											}
										}
									}
								}
							}
							JOINT LSleeve
							{
								OFFSET 6.676277 -0.344902 -1.011730
								CHANNELS 3 Xrotation Yrotation Zrotation
								End Site
								{
									OFFSET 0.000000 14.885353 0.000000
								}
							}
						}
					}
				}
				JOINT RightShoulder
				{
					OFFSET -6.197800 13.665199 -4.064700
					CHANNELS 3 Xrotation Yrotation Zrotation
					JOINT RightArm
					{
						OFFSET -7.778100 -0.187103 -1.709300
						CHANNELS 3 Xrotation Yrotation Zrotation
						JOINT RightForeArm
						{
							OFFSET -22.049376 0.000000 0.000000
							CHANNELS 3 Xrotation Yrotation Zrotation
							JOINT RightHand
							{
								OFFSET -23.009392 0.000000 0.000000
								CHANNELS 3 Xrotation Yrotation Zrotation
								JOINT RightHandThumb1
								{
									OFFSET -3.507191 -2.063065 3.133727
									CHANNELS 3 Xrotation Yrotation Zrotation
									JOINT RightHandThumb2
									{
										OFFSET -3.101337 -1.790558 1.790558
										CHANNELS 3 Xrotation Yrotation Zrotation
										JOINT RightHandThumb3
										{
											OFFSET -3.058640 -1.765907 1.765906
											CHANNELS 3 Xrotation Yrotation Zrotation
											End Site
											{
												OFFSET 0.415260 3.926476 -0.049563
											}
										}
									}
								}
								JOINT RightHandIndex1
								{
									OFFSET -11.334419 -0.901459 3.706815
									CHANNELS 3 Xrotation Yrotation Zrotation
									JOINT RightHandIndex2
									{
										OFFSET -3.283112 0.000000 0.000000
										CHANNELS 3 Xrotation Yrotation Zrotation
										JOINT RightHandIndex3
										{
											OFFSET -3.323853 0.000000 0.000000
											CHANNELS 3 Xrotation Yrotation Zrotation
											End Site
											{
												OFFSET 1.135597 3.097809 0.402452
											}
										}
									}
								}
								JOINT RightHandMiddle1
								{
									OFFSET -11.335861 0.000000 0.000000
									CHANNELS 3 Xrotation Yrotation Zrotation
									JOINT RightHandMiddle2
									{
										OFFSET -3.410492 0.000000 0.000000
										CHANNELS 3 Xrotation Yrotation Zrotation
										JOINT RightHandMiddle3
										{
											OFFSET -3.312172 0.000000 0.000000
											CHANNELS 3 Xrotation Yrotation Zrotation
											End Site
											{
												OFFSET 1.150200 3.080154 0.400270
											}
										}
									}
								}
								JOINT RightHandRing1
								{
									OFFSET -11.514786 -0.013176 -3.003090
									CHANNELS 3 Xrotation Yrotation Zrotation
									JOINT RightHandRing2
									{
										OFFSET -3.053307 0.000000 0.000000
										CHANNELS 3 Xrotation Yrotation Zrotation
										JOINT RightHandRing3
										{
											OFFSET -3.295807 0.000000 0.000000
											CHANNELS 3 Xrotation Yrotation Zrotation
											End Site
											{
												OFFSET 1.281006 3.013344 0.375733
											}
										}
									}
								}
								JOINT RightHandPinky1
								{
									OFFSET -10.518692 -0.960396 -5.730441
									CHANNELS 3 Xrotation Yrotation Zrotation
									JOINT RightHandPinky2
									{
										OFFSET -2.861649 0.000000 0.000000
										CHANNELS 3 Xrotation Yrotation Zrotation
										JOINT RightHandPinky3
										{
											OFFSET -2.863380 0.000000 0.000000
											CHANNELS 3 Xrotation Yrotation Zrotation
											End Site
											{
												OFFSET 0.843597 2.711159 0.369971
											}
										}
									}
								}
							}
							JOINT RSleeve
							{
								OFFSET -6.676277 -0.344902 -1.011730
								CHANNELS 3 Xrotation Yrotation Zrotation
								End Site
								{
									OFFSET 0.000000 14.885353 0.000000
								}
							}
						}
					}
				}
				JOINT Backpack
				{
					OFFSET 0.000000 -2.471497 36.677502
					CHANNELS 3 Xrotation Yrotation Zrotation
					End Site
					{
						OFFSET 0.000000 20.427315 0.000000
					}
				}
				JOINT Hood
				{
					OFFSET 0.000000 18.754097 -10.431000
					CHANNELS 3 Xrotation Yrotation Zrotation
					JOINT Hood1
					{
						OFFSET 0.000000 -5.011002 -7.685901
						CHANNELS 3 Xrotation Yrotation Zrotation
						End Site
						{
							OFFSET 0.000000 9.175140 0.000000
						}
					}
				}
				JOINT LHoodieString
				{
					OFFSET 5.250500 16.397697 3.089900
					CHANNELS 3 Xrotation Yrotation Zrotation
					JOINT LHoodieString1
					{
						OFFSET 0.257700 -6.364304 3.694600
						CHANNELS 3 Xrotation Yrotation Zrotation
						JOINT LHoodieString2
						{
							OFFSET 0.000000 -9.643799 2.679100
							CHANNELS 3 Xrotation Yrotation Zrotation
							End Site
							{
								OFFSET 0.000000 10.009018 0.000000
							}
						}
					}
				}
				JOINT RHoodieString
				{
					OFFSET -5.250500 16.397697 3.089900
					CHANNELS 3 Xrotation Yrotation Zrotation
					JOINT RHoodieString1
					{
						OFFSET -0.257700 -6.364304 3.694600
						CHANNELS 3 Xrotation Yrotation Zrotation
						JOINT RHoodieString2
						{
							OFFSET 0.000000 -9.643799 2.679100
							CHANNELS 3 Xrotation Yrotation Zrotation
							End Site
							{
								OFFSET 0.000000 10.009018 0.000000
							}
						}
					}
				}
			}
			JOINT LBackpack_Strap
			{
				OFFSET 15.223200 -7.719803 -6.610900
				CHANNELS 3 Xrotation Yrotation Zrotation
				End Site
				{
					OFFSET 0.000000 16.040596 0.000000
				}
			}
			JOINT RBackpack_Strap
			{
				OFFSET -15.223000 -7.719803 -6.610900
				CHANNELS 3 Xrotation Yrotation Zrotation
				End Site
				{
					OFFSET 0.000000 16.040596 0.000000
				}
			}
		}
	}
	JOINT BoyFacialAnim_Joint
	{
		OFFSET 1.000000 -82.208099 -1.550900
		CHANNELS 3 Xrotation Yrotation Zrotation
		End Site
		{
			OFFSET 0.000000 30.012791 0.000000
		}
	}
}
MOTION
Frames: 4
Frame Time: 0.033333
-22.028851 71.526939 -21.035137 9.035976 11.392916 7.097710 -0.000001 0.000000 0.000001 -41.692052 -7.295379 17.899976 62.893632 -8.823051 -1.130596 -23.192334 -18.950679 -27.158477 -0.000001 0.000000 -0.000000 -0.000001 0.000000 0.000000 0.000003 -0.000000 0.000001 -59.332064 -0.385454 -15.081112 70.301518 6.668201 0.562434 -24.909819 3.000513 -1.251306 0.000000 -0.000000 0.000000 0.000000 -0.000000 0.000000 -0.000001 -0.000000 0.000000 1.574200 1.739785 3.006067 3.155468 2.803826 2.516485 3.143873 2.817310 2.516980 3.879508 -1.768125 0.724607 -10.014358 -7.028828 -3.696699 -0.000000 -0.000001 0.000001 -0.000000 -0.000001 0.000001 -0.000000 -0.000001 0.000001 0.933126 -4.577924 -6.508752 2.198711 -28.551789 -48.120933 0.000239 -99.944505 0.000253 11.949200 -22.165747 9.121934 8.741087 6.531292 -0.808671 77.838496 -5.633036 -34.174961 -0.000003 -0.000003 0.000001 7.444038 6.858260 -94.702881 7.770023 6.823835 -97.439042 0.000003 0.000001 -0.000000 7.442096 6.858418 -94.686687 7.771940 6.823577 -97.455236 -0.000003 -0.000001 0.000002 7.444021 6.858241 -94.702875 7.770006 6.823836 -97.439028 -0.000000 0.000001 -0.000000 11.512503 6.526950 -94.666832 7.766462 2.737785 -97.396394 -0.000004 0.000000 -0.000002 0.000001 0.000003 0.000000 1.186802 4.804516 10.489550 -27.384972 20.654842 30.588408 0.000001 107.664429 0.000003 -26.425829 10.743074 -9.128102 -9.850938 -31.347443 7.079238 55.282134 -76.465709 41.143017 -0.000001 0.000002 0.000001 8.306317 -6.814881 101.298208 8.805085 -6.696703 105.536326 -0.000001 0.000001 -0.000002 8.306299 -6.814876 101.298208 8.805076 -6.696694 105.536320 0.000003 0.000002 0.000000 8.306293 -6.814861 101.298187 8.805074 -6.696705 105.536340 -0.000002 -0.000000 0.000004 8.306286 -6.814843 101.298187 8.805092 -6.696714 105.536340 0.000001 -0.000002 0.000003 0.000002 -0.000001 -0.000002 -0.000002 0.000000 0.000002 -0.000002 0.000000 0.000002 -0.000002 0.000000 0.000002 -0.000002 0.000000 0.000002 -0.000002 0.000000 0.000002 -0.000002 -0.000000 0.000000 -0.000002 0.000000 0.000002 -0.000002 0.000000 0.000002 -0.000002 -0.000000 0.000000 0.000001 0.000001 0.000001 0.000001 0.000001 0.000001 -0.000001 0.000000 0.000001 
-21.563700 70.816132 -23.175945 12.040030 11.510939 6.690520 -0.000000 0.000001 -0.000001 -41.675161 -8.059575 19.781853 56.792726 -8.758721 -1.108064 -24.266014 -17.675800 -29.884881 0.000001 0.000000 -0.000000 0.000001 0.000000 0.000000 0.000004 0.000000 0.000000 -65.072708 0.776364 -15.373593 70.575033 6.953049 0.556199 -22.324914 2.751398 -0.571837 0.000000 -0.000001 0.000000 0.000000 -0.000001 0.000000 0.000001 -0.000000 -0.000000 2.051697 1.179387 3.054796 4.099929 1.463829 2.609913 4.093011 1.481824 2.609432 3.930619 -1.520504 1.632691 -14.921740 -4.347796 -4.855269 0.000000 0.000000 -0.000000 0.000000 0.000000 -0.000000 0.000000 0.000000 -0.000000 0.959463 -5.444448 -5.656052 -2.196396 -26.926955 -49.737625 0.000076 -100.785097 0.000091 14.066699 -23.354382 9.833238 8.741083 6.531296 -0.808667 77.838489 -5.633033 -34.174954 -0.000004 -0.000001 0.000000 7.444034 6.858265 -94.702875 7.770020 6.823837 -97.439048 -0.000003 0.000000 -0.000004 7.442096 6.858425 -94.686687 7.771937 6.823571 -97.455236 0.000001 0.000000 0.000000 7.444020 6.858244 -94.702875 7.770007 6.823832 -97.439028 0.000002 -0.000001 -0.000001 11.512502 6.526951 -94.666832 7.766467 2.737785 -97.396394 -0.000002 -0.000005 0.000002 -0.000000 0.000000 0.000002 1.178673 5.023076 10.436881 -30.616333 22.245204 28.754932 -0.000003 107.286412 -0.000001 -26.571459 11.872220 -8.755640 -9.850939 -31.347443 7.079241 55.282141 -76.465703 41.143014 0.000003 -0.000001 0.000001 8.306313 -6.814878 101.298208 8.805086 -6.696705 105.536326 -0.000001 -0.000001 0.000005 8.306297 -6.814878 101.298201 8.805070 -6.696694 105.536320 0.000004 0.000000 0.000003 8.306290 -6.814860 101.298194 8.805072 -6.696708 105.536340 -0.000002 -0.000001 0.000004 8.306284 -6.814839 101.298187 8.805092 -6.696710 105.536340 -0.000001 -0.000003 -0.000000 -0.000000 0.000002 -0.000003 -0.000000 0.000000 -0.000001 -0.000000 0.000000 -0.000001 -0.000000 0.000000 -0.000001 -0.000000 0.000000 -0.000001 -0.000000 0.000000 -0.000001 0.000001 0.000000 0.000001 -0.000000 0.000000 -0.000001 -0.000000 0.000000 -0.000001 0.000001 0.000000 0.000001 0.000001 -0.000001 -0.000002 0.000001 -0.000001 -0.000002 -0.000000 0.000001 -0.000001 
-21.103945 69.976189 -25.103447 15.825427 12.034037 6.454610 -0.000001 -0.000001 0.000001 -43.385157 -7.065085 20.038262 51.470438 -8.778823 -1.054853 -25.692665 -15.846440 -30.906507 -0.000001 -0.000000 -0.000000 -0.000001 -0.000000 0.000000 -0.000001 0.000002 0.000001 -71.475136 2.439749 -15.792297 71.045777 7.094452 0.542775 -20.013412 2.328012 0.191981 -0.000000 -0.000001 -0.000000 -0.000000 -0.000001 -0.000000 0.000001 -0.000000 0.000000 2.274400 0.835276 2.810023 4.553850 0.618976 2.487828 4.550839 0.637568 2.486791 4.142788 -1.503096 2.350244 -19.568565 -3.143515 -5.825943 -0.000000 -0.000000 -0.000000 -0.000000 -0.000000 -0.000000 -0.000000 -0.000000 -0.000000 0.965953 -5.927729 -4.946996 -5.524239 -25.887991 -51.081947 0.000214 -102.008636 0.000213 15.749655 -24.353203 10.421174 8.741084 6.531291 -0.808669 77.838496 -5.633038 -34.174961 -0.000001 0.000002 0.000000 7.444033 6.858268 -94.702881 7.770023 6.823829 -97.439042 0.000000 0.000001 -0.000005 7.442099 6.858418 -94.686687 7.771941 6.823576 -97.455236 0.000001 0.000001 0.000000 7.444020 6.858242 -94.702875 7.770011 6.823834 -97.439035 0.000001 0.000001 -0.000002 11.512504 6.526948 -94.666832 7.766463 2.737785 -97.396394 -0.000000 -0.000003 0.000001 -0.000003 -0.000002 -0.000001 1.176219 5.146307 10.412750 -32.981730 22.300513 26.296237 -0.000054 107.392082 0.000034 -26.690610 13.369219 -8.540266 -9.850940 -31.347450 7.079244 55.282130 -76.465709 41.143031 -0.000002 0.000004 -0.000000 8.306311 -6.814889 101.298208 8.805084 -6.696703 105.536320 -0.000000 -0.000003 0.000001 8.306298 -6.814879 101.298208 8.805073 -6.696691 105.536326 0.000002 -0.000001 0.000005 8.306289 -6.814867 101.298194 8.805073 -6.696706 105.536340 -0.000001 -0.000003 0.000002 8.306284 -6.814843 101.298194 8.805091 -6.696711 105.536340 -0.000001 -0.000000 -0.000003 0.000002 0.000003 0.000001 -0.000001 -0.000001 -0.000001 -0.000001 -0.000001 -0.000001 -0.000001 -0.000001 -0.000001 -0.000001 -0.000001 -0.000001 -0.000001 -0.000001 -0.000000 -0.000001 0.000001 -0.000001 -0.000001 -0.000001 -0.000001 -0.000001 -0.000001 -0.000000 -0.000001 0.000001 -0.000001 -0.000001 0.000000 -0.000000 -0.000001 0.000000 -0.000000 -0.000001 -0.000001 0.000001 
-20.627789 68.938080 -26.825861 19.945771 12.796505 6.160328 0.000001 0.000000 0.000000 -48.228922 -5.927604 18.562542 49.663152 -8.863520 -1.002602 -27.519177 -14.316825 -30.204285 -0.000000 0.000000 -0.000000 -0.000000 0.000000 -0.000000 0.000001 0.000002 0.000000 -78.136155 4.487773 -16.086764 71.877311 7.041287 0.522057 -18.057010 1.791302 1.068529 -0.000001 0.000000 0.000000 -0.000001 0.000000 0.000000 -0.000002 0.000000 -0.000000 2.319827 0.632569 2.423441 4.661582 0.136267 2.280287 4.661150 0.152416 2.279421 4.375354 -1.660079 2.708560 -23.724565 -3.191929 -6.789512 0.000002 -0.000001 -0.000001 0.000002 -0.000001 -0.000001 0.000002 -0.000001 -0.000001 0.954512 -6.024435 -4.477754 -7.509720 -25.373446 -52.046694 -0.000005 -103.388232 -0.000007 16.329661 -24.868376 10.902937 8.741082 6.531293 -0.808669 77.838502 -5.633035 -34.174957 -0.000003 0.000000 -0.000001 7.444034 6.858265 -94.702875 7.770026 6.823836 -97.439048 -0.000004 -0.000004 -0.000002 7.442093 6.858418 -94.686687 7.771937 6.823571 -97.455243 0.000001 0.000001 0.000002 7.444016 6.858237 -94.702875 7.770016 6.823834 -97.439028 0.000002 -0.000001 -0.000002 11.512501 6.526951 -94.666832 7.766469 2.737787 -97.396394 -0.000003 -0.000000 -0.000002 0.000001 0.000001 0.000003 1.175235 5.121875 10.414587 -34.469359 21.557356 23.595766 0.000114 107.557946 -0.000099 -26.351329 14.685945 -8.315583 -9.850936 -31.347447 7.079246 55.282113 -76.465709 41.143004 0.000002 -0.000001 0.000002 8.306317 -6.814884 101.298208 8.805085 -6.696704 105.536320 -0.000001 0.000001 0.000002 8.306301 -6.814877 101.298208 8.805069 -6.696691 105.536326 0.000003 0.000001 -0.000004 8.306294 -6.814861 101.298194 8.805071 -6.696707 105.536340 0.000001 -0.000002 0.000000 8.306287 -6.814843 101.298187 8.805096 -6.696711 105.536347 0.000001 -0.000001 -0.000002 -0.000000 -0.000001 0.000001 0.000001 -0.000000 -0.000000 0.000001 -0.000000 -0.000000 0.000001 -0.000000 -0.000000 0.000001 -0.000000 -0.000000 0.000001 -0.000000 -0.000000 -0.000000 -0.000001 -0.000000 0.000001 -0.000000 -0.000000 0.000001 -0.000000 -0.000000 -0.000000 -0.000001 -0.000000 -0.000001 0.000001 -0.000000 -0.000001 0.000001 -0.000000 0.000001 0.000000 0.000000 
